<svg width="328" height="248" viewBox="0 0 328 248" fill="none" xmlns="http://www.w3.org/2000/svg">
<path d="M210.173 0C206.968 5.67636 204.09 11.5485 201.474 17.5512C176.617 13.8322 151.302 13.8322 126.38 17.5512C123.829 11.5485 120.885 5.67636 117.68 0C94.3274 3.98014 71.5636 10.9613 49.9775 20.8134C7.19746 84.0369 -4.3806 145.629 1.3758 206.373C26.4288 224.838 54.491 238.931 84.3846 247.935C91.122 238.931 97.0747 229.34 102.177 219.357C92.4957 215.769 83.1417 211.267 74.1802 206.047C76.535 204.35 78.8245 202.589 81.0485 200.892C133.575 225.555 194.409 225.555 247.001 200.892C249.225 202.719 251.514 204.481 253.869 206.047C244.908 211.332 235.554 215.769 225.807 219.422C230.909 229.405 236.862 238.996 243.599 248C273.492 238.996 301.554 224.968 326.609 206.504C333.41 136.038 314.965 74.9676 277.874 20.8788C256.355 11.0267 233.591 4.04524 210.239 0.130458L210.173 0ZM109.503 168.987C93.3463 168.987 79.9366 154.372 79.9366 136.299C79.9366 118.226 92.8229 103.545 109.438 103.545C126.053 103.545 139.266 118.291 139.004 136.299C138.743 154.307 125.987 168.987 109.503 168.987ZM218.481 168.987C202.258 168.987 188.98 154.372 188.98 136.299C188.98 118.226 201.866 103.545 218.481 103.545C235.096 103.545 248.244 118.291 247.982 136.299C247.72 154.307 234.965 168.987 218.481 168.987Z" fill="white"/>
</svg>
