<svg width="335" height="328" viewBox="0 0 335 328" fill="none" xmlns="http://www.w3.org/2000/svg">
<path fill-rule="evenodd" clip-rule="evenodd" d="M167.499 0C74.8766 0 0 75.1667 0 168.158C0 242.491 47.976 305.412 114.531 327.682C122.853 329.356 125.901 324.064 125.901 319.612C125.901 315.714 125.626 302.351 125.626 288.428C79.032 298.453 69.3291 268.383 69.3291 268.383C61.8411 248.894 50.7463 243.885 50.7463 243.885C35.496 233.584 51.8571 233.584 51.8571 233.584C68.7737 234.698 77.6503 250.845 77.6503 250.845C92.6229 276.456 116.75 269.22 126.456 264.764C127.841 253.906 132.281 246.389 136.995 242.214C99.8331 238.316 60.7337 223.839 60.7337 159.247C60.7337 140.873 67.3851 125.839 77.9246 114.147C76.2617 109.972 70.4366 92.7078 79.5909 69.6009C79.5909 69.6009 93.7337 65.1456 125.623 86.8619C139.276 83.181 153.356 81.3085 167.499 81.2927C181.642 81.2927 196.059 83.2437 209.373 86.8619C241.265 65.1456 255.408 69.6009 255.408 69.6009C264.562 92.7078 258.734 109.972 257.071 114.147C267.888 125.839 274.265 140.873 274.265 159.247C274.265 223.839 235.166 238.036 197.726 242.214C203.829 247.503 209.095 257.524 209.095 273.395C209.095 295.945 208.821 314.043 208.821 319.609C208.821 324.064 211.872 329.356 220.19 327.686C286.745 305.409 334.721 242.491 334.721 168.158C334.995 75.1667 259.845 0 167.499 0Z" fill="white"/>
</svg>
